# WaveFront *.obj file (generated by CINEMA 4D)

mtllib ./chair.mtl

v -17.84845733642578 9.52788162231445 16.5
v -17.84845733642578 15.52788162231445 16.5
v -15.84845638275146 9.52788162231445 16.5
v -15.84845638275146 15.52788162231445 16.5
v -15.84845638275146 9.52788162231445 -16.5
v -15.84845638275146 15.52788162231445 -16.5
v -17.84845733642578 9.52788162231445 -16.5
v -17.84845733642578 15.52788162231445 -16.5
# 8 vertices

vn 0 0 1
vn 1 0 0
vn 0 0 -1
vn -1 0 0
vn 0 1 0
vn 0 -1 0
# 6 normals

vt 0 0 0
vt 0 1 0
vt 1 1 0
vt 1 0 0
# 4 texture coordinates

o Cube.7
usemtl default
f 3/4/1 4/3/1 2/2/1 1/1/1
f 5/4/2 6/3/2 4/2/2 3/1/2
f 7/4/3 8/3/3 6/2/3 5/1/3
f 1/4/4 2/3/4 8/2/4 7/1/4
f 4/4/5 6/3/5 8/2/5 2/1/5
f 5/4/6 3/3/6 1/2/6 7/1/6

v -17.84845733642578 45.20281982421875 16.5
v -17.84845733642578 51.20281982421875 16.5
v -15.84845638275146 45.20281982421875 16.5
v -15.84845638275146 51.20281982421875 16.5
v -15.84845638275146 45.20281982421875 -16.5
v -15.84845638275146 51.20281982421875 -16.5
v -17.84845733642578 45.20281982421875 -16.5
v -17.84845733642578 51.20281982421875 -16.5
# 8 vertices

# 0 normal

# 0 texture coordinate

o Cube.6
usemtl default
f 11/4/1 12/3/1 10/2/1 9/1/1
f 13/4/2 14/3/2 12/2/2 11/1/2
f 15/4/3 16/3/3 14/2/3 13/1/3
f 9/4/4 10/3/4 16/2/4 15/1/4
f 12/4/5 14/3/5 16/2/5 10/1/5
f 13/4/6 11/3/6 9/2/6 15/1/6

v -17.84845733642578 26.73579216003418 16.5
v -17.84845733642578 32.73579025268555 16.5
v -15.84845638275146 26.73579216003418 16.5
v -15.84845638275146 32.73579025268555 16.5
v -15.84845638275146 26.73579216003418 -16.5
v -15.84845638275146 32.73579025268555 -16.5
v -17.84845733642578 26.73579216003418 -16.5
v -17.84845733642578 32.73579025268555 -16.5
# 8 vertices

# 0 normal

# 0 texture coordinate

o Cube.5
usemtl default
f 19/4/1 20/3/1 18/2/1 17/1/1
f 21/4/2 22/3/2 20/2/2 19/1/2
f 23/4/3 24/3/3 22/2/3 21/1/3
f 17/4/4 18/3/4 24/2/4 23/1/4
f 20/4/5 22/3/5 24/2/5 18/1/5
f 21/4/6 19/3/6 17/2/6 23/1/6

v 16.18210411071777 -22.36970901489258 -15.53056144714355
v 16.18210411071777 -16.36970901489258 -15.53056144714355
v 16.18210411071777 -22.36970901489258 -17.53056144714355
v 16.18210411071777 -16.36970901489258 -17.53056144714355
v -16.81789588928223 -22.36970901489258 -17.53056144714355
v -16.81789588928223 -16.36970901489258 -17.53056144714355
v -16.81789588928223 -22.36970901489258 -15.53056144714355
v -16.81789588928223 -16.36970901489258 -15.53056144714355
# 8 vertices

# 0 normal

# 0 texture coordinate

o Cube.2
usemtl default
f 27/4/1 28/3/1 26/2/1 25/1/1
f 29/4/2 30/3/2 28/2/2 27/1/2
f 31/4/3 32/3/3 30/2/3 29/1/3
f 25/4/4 26/3/4 32/2/4 31/1/4
f 28/4/5 30/3/5 32/2/5 26/1/5
f 29/4/6 27/3/6 25/2/6 31/1/6

v 15.53056144714355 -22.36970901489258 16.5
v 15.53056144714355 -16.36970901489258 16.5
v 17.53056144714355 -22.36970901489258 16.5
v 17.53056144714355 -16.36970901489258 16.5
v 17.53056144714355 -22.36970901489258 -16.5
v 17.53056144714355 -16.36970901489258 -16.5
v 15.53056144714355 -22.36970901489258 -16.5
v 15.53056144714355 -16.36970901489258 -16.5
# 8 vertices

# 0 normal

# 0 texture coordinate

o Cube.4
usemtl default
f 35/4/1 36/3/1 34/2/1 33/1/1
f 37/4/2 38/3/2 36/2/2 35/1/2
f 39/4/3 40/3/3 38/2/3 37/1/3
f 33/4/4 34/3/4 40/2/4 39/1/4
f 36/4/5 38/3/5 40/2/5 34/1/5
f 37/4/6 35/3/6 33/2/6 39/1/6

v 16.18210411071777 -22.36970901489258 17.84845733642578
v 16.18210411071777 -16.36970901489258 17.84845733642578
v 16.18210411071777 -22.36970901489258 15.84845638275146
v 16.18210411071777 -16.36970901489258 15.84845638275146
v -16.81789588928223 -22.36970901489258 15.84845638275146
v -16.81789588928223 -16.36970901489258 15.84845638275146
v -16.81789588928223 -22.36970901489258 17.84845733642578
v -16.81789588928223 -16.36970901489258 17.84845733642578
# 8 vertices

# 0 normal

# 0 texture coordinate

o Cube.3
usemtl default
f 43/4/1 44/3/1 42/2/1 41/1/1
f 45/4/2 46/3/2 44/2/2 43/1/2
f 47/4/3 48/3/3 46/2/3 45/1/3
f 41/4/4 42/3/4 48/2/4 47/1/4
f 44/4/5 46/3/5 48/2/5 42/1/5
f 45/4/6 43/3/6 41/2/6 47/1/6

v -17.84845733642578 -22.36970901489258 16.5
v -17.84845733642578 -16.36970901489258 16.5
v -15.84845638275146 -22.36970901489258 16.5
v -15.84845638275146 -16.36970901489258 16.5
v -15.84845638275146 -22.36970901489258 -16.5
v -15.84845638275146 -16.36970901489258 -16.5
v -17.84845733642578 -22.36970901489258 -16.5
v -17.84845733642578 -16.36970901489258 -16.5
# 8 vertices

# 0 normal

# 0 texture coordinate

o Cube.1
usemtl default
f 51/4/1 52/3/1 50/2/1 49/1/1
f 53/4/2 54/3/2 52/2/2 51/1/2
f 55/4/3 56/3/3 54/2/3 53/1/3
f 49/4/4 50/3/4 56/2/4 55/1/4
f 52/4/5 54/3/5 56/2/5 50/1/5
f 53/4/6 51/3/6 49/2/6 55/1/6

v -20 -1 20
v -20 1 20
v 20 -1 20
v 20 1 20
v 20 -1 -20
v 20 1 -20
v -20 -1 -20
v -20 1 -20
v -20 1 18.70665740966797
v 20 1 18.70665740966797
v 20 -1 18.70665740966797
v -20 -1 18.70665740966797
v -20 1 14.90449142456055
v 20 1 14.90449142456055
v 20 -1 14.90449142456055
v -20 -1 14.90449142456055
v -20 1 -18.5545711517334
v 20 1 -18.5545711517334
v 20 -1 -18.5545711517334
v -20 -1 -18.5545711517334
v -20 1 -15.05657863616943
v 20 1 -15.05657863616943
v 20 -1 -15.05657863616943
v -20 -1 -15.05657863616943
v -18.93478775024414 1 -20
v -18.93478775024414 1 -18.5545711517334
v -18.93478775024414 1 -15.05657863616943
v -18.93478775024414 1 14.90449142456055
v -18.93478775024414 1 18.70665740966797
v -18.93478775024414 1 20
v -18.93478775024414 -1 20
v -18.93478775024414 -1 18.70665740966797
v -18.93478775024414 -1 14.90449142456055
v -18.93478775024414 -1 -15.05657863616943
v -18.93478775024414 -1 -18.5545711517334
v -18.93478775024414 -1 -20
v -14.82844829559326 1 -20
v -14.82844829559326 1 -18.5545711517334
v -14.82844829559326 1 -15.05657863616943
v -14.82844829559326 1 14.90449142456055
v -14.82844829559326 1 18.70665740966797
v -14.82844829559326 1 20
v -14.82844829559326 -1 20
v -14.82844829559326 -1 18.70665740966797
v -14.82844829559326 -1 14.90449142456055
v -14.82844829559326 -1 -15.05657863616943
v -14.82844829559326 -1 -18.5545711517334
v -14.82844829559326 -1 -20
v 18.70665740966797 1 -20
v 18.70665740966797 1 -18.5545711517334
v 18.70665740966797 1 -15.05657863616943
v 18.70665740966797 1 14.90449142456055
v 18.70665740966797 1 18.70665740966797
v 18.70665740966797 1 20
v 18.70665740966797 -1 20
v 18.70665740966797 -1 18.70665740966797
v 18.70665740966797 -1 14.90449142456055
v 18.70665740966797 -1 -15.05657863616943
v 18.70665740966797 -1 -18.5545711517334
v 18.70665740966797 -1 -20
v 14.37218856811523 1 -20
v 14.37218856811523 1 -18.5545711517334
v 14.37218856811523 1 -15.05657863616943
v 14.37218856811523 1 14.90449142456055
v 14.37218856811523 1 18.70665740966797
v 14.37218856811523 1 20
v 14.37218856811523 -1 20
v 14.37218856811523 -1 18.70665740966797
v 14.37218856811523 -1 14.90449142456055
v 14.37218856811523 -1 -15.05657863616943
v 14.37218856811523 -1 -18.5545711517334
v 14.37218856811523 -1 -20
v -18.93478775024414 -41 18.70665740966797
v -18.93478775024414 -41 14.90449142456055
v -14.82844829559326 -41 18.70665740966797
v -14.82844829559326 -41 14.90449142456055
v -18.93478775024414 -41 -15.05657863616943
v -18.93478775024414 -41 -18.5545711517334
v -14.82844829559326 -41 -15.05657863616943
v -14.82844829559326 -41 -18.5545711517334
v 18.70665740966797 -41 18.70665740966797
v 18.70665740966797 -41 14.90449142456055
v 14.37218856811523 -41 18.70665740966797
v 14.37218856811523 -41 14.90449142456055
v 18.70665740966797 -41 -15.05657863616943
v 18.70665740966797 -41 -18.5545711517334
v 14.37218856811523 -41 -15.05657863616943
v 14.37218856811523 -41 -18.5545711517334
v -18.93478775024414 51 -18.5545711517334
v -18.93478775024414 51 -15.05657863616943
v -14.82844829559326 51 -18.5545711517334
v -14.82844829559326 51 -15.05657863616943
v -18.93478775024414 51 14.90449142456055
v -18.93478775024414 51 18.70665740966797
v -14.82844829559326 51 14.90449142456055
v -14.82844829559326 51 18.70665740966797
# 96 vertices

# 0 normal

vt 0.0266302973032 1 0
vt 0.0266302973032 0 0
vt 0.03233354911208 1 0
vt 0.03233354911208 0 0
vt 0.97336971759796 1 0
vt 0.97336971759796 0 0
vt 0.96766644716263 1 0
vt 0.96766644716263 0 0
vt 0 0.03233361244202 0
vt 0.0266302973032 0.03233361244202 0
vt 0 0.96766644716263 0
vt 0.0266302973032 0.96766644716263 0
vt 0 0.1273877620697 0
vt 0.0266302973032 0.1273877620697 0
vt 0.12738770246506 1 0
vt 0.12738770246506 0 0
vt 0.0266302973032 0.87261229753494 0
vt 0 0.87261229753494 0
vt 0.87261229753494 0 0
vt 0.87261229753494 1 0
vt 0 0.87641447782516 0
vt 0.0266302973032 0.87641447782516 0
vt 0.87641441822052 1 0
vt 0.87641441822052 0 0
vt 0.0266302973032 0.12358558177948 0
vt 0 0.12358558177948 0
vt 0.123585537076 0 0
vt 0.123585537076 1 0
vt 0 0.96386426687241 0
vt 0.0266302973032 0.96386426687241 0
vt 0.96386426687241 1 0
vt 0.96386426687241 0 0
vt 0 0.03613579273224 0
vt 0.0266302973032 0.03613579273224 0
vt 0.03613571450114 0 0
vt 0.03613571450114 1 0
vt 0.12928879261017 1 0
vt 0.12928879261017 0.96386426687241 0
vt 0.12928879261017 0.87641447782516 0
vt 0.12928879261017 0.1273877620697 0
vt 0.12928879261017 0.03233361244202 0
vt 0.12928879261017 0 0
vt 0.12928879261017 0.96766644716263 0
vt 0.12928879261017 0.87261229753494 0
vt 0.12928879261017 0.12358558177948 0
vt 0.12928879261017 0.03613579273224 0
vt 0.87071120738983 0 0
vt 0.87071120738983 1 0
vt 0.85930472612381 1 0
vt 0.85930472612381 0.96386426687241 0
vt 0.85930472612381 0.87641447782516 0
vt 0.85930472612381 0.1273877620697 0
vt 0.85930472612381 0.03233361244202 0
vt 0.85930472612381 0 0
vt 0.85930472612381 0.96766644716263 0
vt 0.85930472612381 0.87261229753494 0
vt 0.85930472612381 0.12358558177948 0
vt 0.85930472612381 0.03613579273224 0
vt 0.14069528877735 0 0
vt 0.14069528877735 1 0
vt 1 0.96386426687241 0
vt 0.96766644716263 0.96386426687241 0
vt 1 0.87641447782516 0
vt 0.96766644716263 0.87641447782516 0
vt 1 0.1273877620697 0
vt 0.96766644716263 0.1273877620697 0
vt 1 0.03233361244202 0
vt 0.96766644716263 0.03233361244202 0
vt 1 0.96766644716263 0
vt 0.96766644716263 0.96766644716263 0
vt 1 0.87261229753494 0
vt 0.96766644716263 0.87261229753494 0
vt 1 0.12358558177948 0
vt 0.96766644716263 0.12358558177948 0
vt 1 0.03613579273224 0
vt 0.96766644716263 0.03613579273224 0
# 76 texture coordinates

o Cube
usemtl Wood Planks 07
f 87/6/1 86/5/1 58/2/1 57/1/1
f 67/8/2 66/7/2 60/2/2 59/1/2
f 92/10/3 63/4/3 64/3/3 81/9/3
f 68/12/4 57/4/4 58/3/4 65/11/4
f 86/6/5 85/14/5 65/13/5 58/1/5
f 88/16/6 87/5/6 57/2/6 68/15/6
f 85/14/5 84/18/5 69/17/5 65/13/5
f 67/8/2 71/20/2 70/19/2 66/7/2
f 88/16/6 68/15/6 72/22/6 89/21/6
f 65/11/4 69/24/4 72/23/4 68/12/4
f 84/18/5 83/26/5 77/25/5 69/17/5
f 71/20/2 79/28/2 78/27/2 70/19/2
f 89/21/6 72/22/6 80/30/6 90/29/6
f 69/24/4 77/32/4 80/31/4 72/23/4
f 82/34/5 81/5/5 64/2/5 73/33/5
f 75/36/2 61/4/2 62/3/2 74/35/2
f 91/38/6 76/37/6 63/1/6 92/6/6
f 73/40/4 64/2/4 63/1/4 76/39/4
f 83/26/5 82/34/5 73/33/5 77/25/5
f 79/28/2 75/36/2 74/35/2 78/27/2
f 90/29/6 80/30/6 76/37/6 91/38/6
f 77/32/4 73/40/4 76/39/4 80/31/4
f 82/34/5 94/42/5 93/41/5 81/5/5
f 146/26/5 148/43/5 147/42/5 145/34/5
f 84/18/5 96/44/5 95/43/5 83/26/5
f 150/14/5 152/45/5 151/44/5 149/18/5
f 86/6/5 98/46/5 97/45/5 85/14/5
f 87/6/1 99/46/1 98/41/1 86/5/1
f 88/16/6 100/47/6 99/41/6 87/5/6
f 130/21/6 132/48/6 131/47/6 129/16/6
f 90/29/6 102/49/6 101/48/6 89/21/6
f 134/38/6 136/50/6 135/49/6 133/29/6
f 92/6/6 104/46/6 103/50/6 91/38/6
f 81/9/3 93/52/3 104/51/3 92/10/3
f 94/42/5 118/54/5 117/53/5 93/41/5
f 95/43/5 119/55/5 118/54/5 94/42/5
f 96/44/5 120/56/5 119/55/5 95/43/5
f 97/45/5 121/57/5 120/56/5 96/44/5
f 98/46/5 122/58/5 121/57/5 97/45/5
f 99/46/1 123/58/1 122/53/1 98/41/1
f 100/47/6 124/59/6 123/53/6 99/41/6
f 101/48/6 125/60/6 124/59/6 100/47/6
f 102/49/6 126/61/6 125/60/6 101/48/6
f 103/50/6 127/62/6 126/61/6 102/49/6
f 104/46/6 128/58/6 127/62/6 103/50/6
f 93/52/3 117/64/3 128/63/3 104/51/3
f 106/66/5 74/65/5 62/3/5 105/11/5
f 107/68/5 78/67/5 74/65/5 106/66/5
f 108/70/5 70/69/5 78/67/5 107/68/5
f 109/72/5 66/71/5 70/69/5 108/70/5
f 110/12/5 60/4/5 66/71/5 109/72/5
f 111/12/1 59/4/1 60/3/1 110/11/1
f 112/74/6 67/73/6 59/3/6 111/11/6
f 113/76/6 71/75/6 67/73/6 112/74/6
f 114/78/6 79/77/6 71/75/6 113/76/6
f 115/80/6 75/79/6 79/77/6 114/78/6
f 116/12/6 61/4/6 75/79/6 115/80/6
f 105/7/3 62/2/3 61/1/3 116/8/3
f 118/54/5 106/66/5 105/11/5 117/53/5
f 119/55/5 107/68/5 106/66/5 118/54/5
f 120/56/5 108/70/5 107/68/5 119/55/5
f 121/57/5 109/72/5 108/70/5 120/56/5
f 122/58/5 110/12/5 109/72/5 121/57/5
f 123/58/1 111/12/1 110/11/1 122/53/1
f 124/59/6 112/74/6 111/11/6 123/53/6
f 140/60/6 138/76/6 137/74/6 139/59/6
f 126/61/6 114/78/6 113/76/6 125/60/6
f 144/62/6 142/80/6 141/78/6 143/61/6
f 128/58/6 116/12/6 115/80/6 127/62/6
f 117/64/3 105/7/3 116/8/3 128/63/3
f 89/21/4 130/21/4 129/16/4 88/16/4
f 101/48/3 132/48/3 130/21/3 89/21/3
f 100/47/2 131/47/2 132/48/2 101/48/2
f 88/16/1 129/16/1 131/47/1 100/47/1
f 91/38/4 134/38/4 133/29/4 90/29/4
f 103/50/3 136/50/3 134/38/3 91/38/3
f 102/49/2 135/49/2 136/50/2 103/50/2
f 90/29/1 133/29/1 135/49/1 102/49/1
f 125/60/4 140/60/4 139/59/4 124/59/4
f 113/76/3 138/76/3 140/60/3 125/60/3
f 112/74/2 137/74/2 138/76/2 113/76/2
f 124/59/1 139/59/1 137/74/1 112/74/1
f 127/62/4 144/62/4 143/61/4 126/61/4
f 115/80/3 142/80/3 144/62/3 127/62/3
f 114/78/2 141/78/2 142/80/2 115/80/2
f 126/61/1 143/61/1 141/78/1 114/78/1
f 83/26/4 146/26/4 145/34/4 82/34/4
f 95/43/1 148/43/1 146/26/1 83/26/1
f 94/42/2 147/42/2 148/43/2 95/43/2
f 82/34/3 145/34/3 147/42/3 94/42/3
f 85/14/4 150/14/4 149/18/4 84/18/4
f 97/45/1 152/45/1 150/14/1 85/14/1
f 96/44/2 151/44/2 152/45/2 97/45/2
f 84/18/3 149/18/3 151/44/3 96/44/3

# 0 vertex

# 0 normal

# 0 texture coordinate

o Cube.7_1
usemtl default
f 3/4/1 4/3/1 2/2/1 1/1/1
f 5/4/2 6/3/2 4/2/2 3/1/2
f 7/4/3 8/3/3 6/2/3 5/1/3
f 1/4/4 2/3/4 8/2/4 7/1/4
f 4/4/5 6/3/5 8/2/5 2/1/5
f 5/4/6 3/3/6 1/2/6 7/1/6

# 0 vertex

# 0 normal

# 0 texture coordinate

o Cube.6_1
usemtl default
f 11/4/1 12/3/1 10/2/1 9/1/1
f 13/4/2 14/3/2 12/2/2 11/1/2
f 15/4/3 16/3/3 14/2/3 13/1/3
f 9/4/4 10/3/4 16/2/4 15/1/4
f 12/4/5 14/3/5 16/2/5 10/1/5
f 13/4/6 11/3/6 9/2/6 15/1/6

# 0 vertex

# 0 normal

# 0 texture coordinate

o Cube.5_1
usemtl default
f 19/4/1 20/3/1 18/2/1 17/1/1
f 21/4/2 22/3/2 20/2/2 19/1/2
f 23/4/3 24/3/3 22/2/3 21/1/3
f 17/4/4 18/3/4 24/2/4 23/1/4
f 20/4/5 22/3/5 24/2/5 18/1/5
f 21/4/6 19/3/6 17/2/6 23/1/6

# 0 vertex

# 0 normal

# 0 texture coordinate

o Cube.2_1
usemtl default
f 27/4/1 28/3/1 26/2/1 25/1/1
f 29/4/2 30/3/2 28/2/2 27/1/2
f 31/4/3 32/3/3 30/2/3 29/1/3
f 25/4/4 26/3/4 32/2/4 31/1/4
f 28/4/5 30/3/5 32/2/5 26/1/5
f 29/4/6 27/3/6 25/2/6 31/1/6

# 0 vertex

# 0 normal

# 0 texture coordinate

o Cube.4_1
usemtl default
f 35/4/1 36/3/1 34/2/1 33/1/1
f 37/4/2 38/3/2 36/2/2 35/1/2
f 39/4/3 40/3/3 38/2/3 37/1/3
f 33/4/4 34/3/4 40/2/4 39/1/4
f 36/4/5 38/3/5 40/2/5 34/1/5
f 37/4/6 35/3/6 33/2/6 39/1/6

# 0 vertex

# 0 normal

# 0 texture coordinate

o Cube.3_1
usemtl default
f 43/4/1 44/3/1 42/2/1 41/1/1
f 45/4/2 46/3/2 44/2/2 43/1/2
f 47/4/3 48/3/3 46/2/3 45/1/3
f 41/4/4 42/3/4 48/2/4 47/1/4
f 44/4/5 46/3/5 48/2/5 42/1/5
f 45/4/6 43/3/6 41/2/6 47/1/6

# 0 vertex

# 0 normal

# 0 texture coordinate

o Cube.1_1
usemtl default
f 51/4/1 52/3/1 50/2/1 49/1/1
f 53/4/2 54/3/2 52/2/2 51/1/2
f 55/4/3 56/3/3 54/2/3 53/1/3
f 49/4/4 50/3/4 56/2/4 55/1/4
f 52/4/5 54/3/5 56/2/5 50/1/5
f 53/4/6 51/3/6 49/2/6 55/1/6

# 0 vertex

# 0 normal

# 0 texture coordinate

o Cube_1
usemtl Wood Planks 07
f 87/6/1 86/5/1 58/2/1 57/1/1
f 67/8/2 66/7/2 60/2/2 59/1/2
f 92/10/3 63/4/3 64/3/3 81/9/3
f 68/12/4 57/4/4 58/3/4 65/11/4
f 86/6/5 85/14/5 65/13/5 58/1/5
f 88/16/6 87/5/6 57/2/6 68/15/6
f 85/14/5 84/18/5 69/17/5 65/13/5
f 67/8/2 71/20/2 70/19/2 66/7/2
f 88/16/6 68/15/6 72/22/6 89/21/6
f 65/11/4 69/24/4 72/23/4 68/12/4
f 84/18/5 83/26/5 77/25/5 69/17/5
f 71/20/2 79/28/2 78/27/2 70/19/2
f 89/21/6 72/22/6 80/30/6 90/29/6
f 69/24/4 77/32/4 80/31/4 72/23/4
f 82/34/5 81/5/5 64/2/5 73/33/5
f 75/36/2 61/4/2 62/3/2 74/35/2
f 91/38/6 76/37/6 63/1/6 92/6/6
f 73/40/4 64/2/4 63/1/4 76/39/4
f 83/26/5 82/34/5 73/33/5 77/25/5
f 79/28/2 75/36/2 74/35/2 78/27/2
f 90/29/6 80/30/6 76/37/6 91/38/6
f 77/32/4 73/40/4 76/39/4 80/31/4
f 82/34/5 94/42/5 93/41/5 81/5/5
f 146/26/5 148/43/5 147/42/5 145/34/5
f 84/18/5 96/44/5 95/43/5 83/26/5
f 150/14/5 152/45/5 151/44/5 149/18/5
f 86/6/5 98/46/5 97/45/5 85/14/5
f 87/6/1 99/46/1 98/41/1 86/5/1
f 88/16/6 100/47/6 99/41/6 87/5/6
f 130/21/6 132/48/6 131/47/6 129/16/6
f 90/29/6 102/49/6 101/48/6 89/21/6
f 134/38/6 136/50/6 135/49/6 133/29/6
f 92/6/6 104/46/6 103/50/6 91/38/6
f 81/9/3 93/52/3 104/51/3 92/10/3
f 94/42/5 118/54/5 117/53/5 93/41/5
f 95/43/5 119/55/5 118/54/5 94/42/5
f 96/44/5 120/56/5 119/55/5 95/43/5
f 97/45/5 121/57/5 120/56/5 96/44/5
f 98/46/5 122/58/5 121/57/5 97/45/5
f 99/46/1 123/58/1 122/53/1 98/41/1
f 100/47/6 124/59/6 123/53/6 99/41/6
f 101/48/6 125/60/6 124/59/6 100/47/6
f 102/49/6 126/61/6 125/60/6 101/48/6
f 103/50/6 127/62/6 126/61/6 102/49/6
f 104/46/6 128/58/6 127/62/6 103/50/6
f 93/52/3 117/64/3 128/63/3 104/51/3
f 106/66/5 74/65/5 62/3/5 105/11/5
f 107/68/5 78/67/5 74/65/5 106/66/5
f 108/70/5 70/69/5 78/67/5 107/68/5
f 109/72/5 66/71/5 70/69/5 108/70/5
f 110/12/5 60/4/5 66/71/5 109/72/5
f 111/12/1 59/4/1 60/3/1 110/11/1
f 112/74/6 67/73/6 59/3/6 111/11/6
f 113/76/6 71/75/6 67/73/6 112/74/6
f 114/78/6 79/77/6 71/75/6 113/76/6
f 115/80/6 75/79/6 79/77/6 114/78/6
f 116/12/6 61/4/6 75/79/6 115/80/6
f 105/7/3 62/2/3 61/1/3 116/8/3
f 118/54/5 106/66/5 105/11/5 117/53/5
f 119/55/5 107/68/5 106/66/5 118/54/5
f 120/56/5 108/70/5 107/68/5 119/55/5
f 121/57/5 109/72/5 108/70/5 120/56/5
f 122/58/5 110/12/5 109/72/5 121/57/5
f 123/58/1 111/12/1 110/11/1 122/53/1
f 124/59/6 112/74/6 111/11/6 123/53/6
f 140/60/6 138/76/6 137/74/6 139/59/6
f 126/61/6 114/78/6 113/76/6 125/60/6
f 144/62/6 142/80/6 141/78/6 143/61/6
f 128/58/6 116/12/6 115/80/6 127/62/6
f 117/64/3 105/7/3 116/8/3 128/63/3
f 89/21/4 130/21/4 129/16/4 88/16/4
f 101/48/3 132/48/3 130/21/3 89/21/3
f 100/47/2 131/47/2 132/48/2 101/48/2
f 88/16/1 129/16/1 131/47/1 100/47/1
f 91/38/4 134/38/4 133/29/4 90/29/4
f 103/50/3 136/50/3 134/38/3 91/38/3
f 102/49/2 135/49/2 136/50/2 103/50/2
f 90/29/1 133/29/1 135/49/1 102/49/1
f 125/60/4 140/60/4 139/59/4 124/59/4
f 113/76/3 138/76/3 140/60/3 125/60/3
f 112/74/2 137/74/2 138/76/2 113/76/2
f 124/59/1 139/59/1 137/74/1 112/74/1
f 127/62/4 144/62/4 143/61/4 126/61/4
f 115/80/3 142/80/3 144/62/3 127/62/3
f 114/78/2 141/78/2 142/80/2 115/80/2
f 126/61/1 143/61/1 141/78/1 114/78/1
f 83/26/4 146/26/4 145/34/4 82/34/4
f 95/43/1 148/43/1 146/26/1 83/26/1
f 94/42/2 147/42/2 148/43/2 95/43/2
f 82/34/3 145/34/3 147/42/3 94/42/3
f 85/14/4 150/14/4 149/18/4 84/18/4
f 97/45/1 152/45/1 150/14/1 85/14/1
f 96/44/2 151/44/2 152/45/2 97/45/2
f 84/18/3 149/18/3 151/44/3 96/44/3

